<svg version="1.2" xmlns="http://www.w3.org/2000/svg" viewBox="0 0 1920 1080" width="1920" height="1080"><defs><clipPath clipPathUnits="userSpaceOnUse" id="cp1"><path d="m0 0h1920v1080h-1920z"/></clipPath><linearGradient id="P" gradientUnits="userSpaceOnUse"/><linearGradient id="g1" x2="1" href="#P" gradientTransform="matrix(141.324,-9.334,9.334,141.324,1729.132,562.024)"><stop stop-color="#fff" stop-opacity="1"/><stop offset="1" stop-color="#fff" stop-opacity="0"/></linearGradient></defs><style>tspan{white-space:pre}.a{fill:#8ba9ff}.b{fill:#7c96e3}.c{fill:#fff}.d{fill:url(#g1)}</style><path class="a" d="m1231.3 869.6h-35.9v-35.9h-37.2v35.9h-35.9v37.2h35.9v35.9h37.2v-35.9h35.9z"/><path class="a" d="m135.2 81.1h-18.6v-18.5h-19.3v18.5h-18.6v19.3h18.6v18.6h19.3v-18.6h18.6z"/><path class="a" d="m1518.2 449.9h-18.6v-18.6h-19.3v18.6h-18.6v19.3h18.6v18.5h19.3v-18.5h18.6z"/><path class="a" d="m1197.6 144.4h-18.6v-18.6h-19.3v18.6h-18.6v19.3h18.6v18.6h19.3v-18.6h18.6z"/><path class="a" d="m793.3 824.1h-18.6v-18.6h-19.3v18.6h-18.6v19.3h18.6v18.5h19.3v-18.5h18.6z"/><g clip-path="url(#cp1)"><path class="b" d="m189 197c2.7-0.3 5.4-0.3 8-0.1-10.3 7-16.4 19.4-14.7 32.6l119.3 922.3 44.6-5.8 0.3 2.7-67.6 8.8-119.4-922.3c-2.4-18.7 10.8-35.8 29.5-38.2z"/><path class="a" d="m182.3 229.5c-1.7-13.2 4.4-25.6 14.7-32.6 15.3 1.7 28.1 13.6 30.2 29.6l119 919.5-44.6 5.8z"/><path class="a" d="m256.3 451.5l83.8-10.8-29.5-227.8-83.8 10.9z"/><path class="c" d="m280.9 241l32.8-4.2-0.6-5.1-32.9 4.2z"/><path class="c" d="m283 257.8l32.9-4.2-0.7-5.1-32.8 4.2z"/><path class="c" d="m296.1 358.6l32.8-4.3-0.6-5.1-32.9 4.2z"/><path class="c" d="m288.1 297.2l32.9-4.2-0.7-5.1-32.8 4.2z"/><path class="c" d="m303.2 413.3l32.8-4.3-0.7-5.1-32.8 4.3z"/><path class="c" d="m304.8 425.7l32.8-4.2-0.6-5.2-32.9 4.3z"/><path class="b" d="m256.3 451.5l12.3-1.6-29.5-227.7-12.3 1.6z"/><path class="b" d="m270.4 563.9l5.1-0.7 10.9 83.9-5.2 0.7z"/><path class="a" d="m280.9 562.5c6-0.8 11.5 3.5 12.3 9.4l8 62.3c0.8 6-3.4 11.4-9.4 12.2l-5.4 0.7-10.9-83.9z"/><path class="b" d="m0 634.9c5.1-27.7 30.9-46.6 58.8-43.2l31.7 3.8 17.5 2.1c-27.9-3.4-53.7 15.6-58.8 43.2l-84.4 457.8-49.2-5.9z"/><path class="a" d="m108 597.6l11.9 1.5 19.8 2.4 11.9 1.4c28 3.4 48.5 27.9 46.8 56l-27.3 464.7-63.8-7.7-29.4-3.6-19.8-2.4-29.4-3.5-63.9-7.8 84.4-457.8c5.1-27.6 30.9-46.6 58.8-43.2z"/><path class="b" d="m49.1 1084.2l132.9 16.1-10.9 23.3-125-15.1-131.1-15.9-5-25.3z"/><path class="c" d="m152.6 1104.5l15.7 1.9 0.3-3-15.7-1.9z"/><path class="c" d="m123.7 1101l15.7 1.9 0.4-3-15.7-1.9z"/><path class="c" d="m94.9 1097.5l15.7 1.9 0.4-3-15.7-1.9z"/><path class="c" d="m66.1 1094l15.7 1.9 0.3-3-15.7-1.9z"/><path class="c" d="m37.2 1090.5l15.7 1.9 0.4-3-15.7-1.9z"/><path class="c" d="m8.4 1087l15.7 1.9 0.3-3-15.7-1.9z"/><path class="c" d="m-20.4 1083.5l15.6 1.9 0.4-3-15.7-1.9z"/><path class="c" d="m-49.3 1080l15.7 1.9 0.4-3-15.7-1.9z"/><path class="c" d="m-78.1 1076.5l15.7 1.9 0.3-2.9-15.7-1.9z"/><path class="b" d="m84 504.8l13.6 1.6-16.4 88-13.6-1.7z"/><path class="a" d="m146.8 512.4l-4.6 89.4-61-7.4 16.4-88z"/><path class="b" d="m84 504.8c-0.5 4.1 10.1 8.8 30.8 11.2 20.6 2.5 31.5 0.5 32-3.6 0.5-4.1-9.6-8.7-30.3-11.2-20.6-2.5-32-0.5-32.5 3.6z"/><path class="c" d="m43.4 692.2c1.9-8.5 9.9-14.1 18.5-13.1l29.4 3.6 6.4 0.8 29.5 3.6c8.5 1 14.9 8.4 14.8 17l-3.8 212.3c-0.2 10-9 17.6-18.9 16.4l-52-6.3-4.5-0.5-51.9-6.3c-9.9-1.2-16.6-10.7-14.4-20.5z"/><path class="a" d="m50.5 751.5l23.2 2.8 2.8-23.2 24.1 2.9-2.8 23.2 23.2 2.8-3 24.1-23.2-2.8-2.8 23.2-24-2.9 2.8-23.2-23.2-2.8z"/><path class="b" d="m401.5 958.6c0.9-42.1-39.3-112 7.4-144.6 17.5-12.2 44.5-9.5 62.5 2.4-10.8-0.4-21.4 2-29.9 7.9-46.6 32.6-6.5 102.5-7.4 144.6-0.6 27.3-26.1 33.5-35.1 56.4-8.6 22.1-3.1 49.4 10 68.6 3.7 5.4 8.5 10 13.8 13.7-16 0.8-35.7-8.3-46.4-24-13.1-19.2-18.6-46.5-10-68.6 9-22.9 34.5-29 35.1-56.4z"/><path class="a" d="m434.1 968.9c0.9-42.1-39.2-112 7.4-144.6 8.5-5.9 19.1-8.3 29.9-7.9 2.8 1.9 5.4 4 7.7 6.2 12.1 12.1 30.2 19.8 48.6 22 13.7 1.7 27.6 0.3 39.4-4.6 17-7 40-4.5 55.9 6.4 4.9 3.3 9.1 7.4 12.3 12.3 30.8 47.8-32.9 97.3-48 136.5-9.9 25.6 11.4 41 10.9 65.5-0.4 23.8-15.8 46.9-35.2 59.7-8.5 5.5-18.5 8.4-28.3 8.9-28.1 1.3-53.6-17.3-30.5-50.4 12.3-17.7 16.1-46.9 7.1-66.5-0.9-1.8-1.9-3.4-3-4.9-9.9-13.5-30.3-16.1-43.1-4.2-15.8 14.8-23.4 43.1-18.7 64.2 6.1 27.3-6.7 39.3-23.7 40.1-5.3-3.7-10.1-8.3-13.8-13.7-13.1-19.2-18.6-46.5-10-68.6 9-22.9 34.5-29.1 35.1-56.4z"/><path class="c" d="m590.7 888.5c5.7 16.4 17.2 27.2 25.8 24.3 8.5-3 10.9-18.6 5.3-35-5.6-16.3-17.1-27.2-25.7-24.3-8.6 3-11 18.6-5.4 35z"/><path class="b" d="m1518.5 958.6c-0.9-42.1 39.3-112-7.4-144.6-17.5-12.2-44.5-9.5-62.5 2.4 10.8-0.4 21.4 2 29.9 7.9 46.6 32.6 6.5 102.5 7.4 144.6 0.6 27.3 26.1 33.5 35.1 56.4 8.6 22.1 3.1 49.4-10 68.6-3.7 5.4-8.5 10-13.8 13.7 16 0.8 35.7-8.3 46.4-24 13.1-19.2 18.6-46.5 10-68.6-9-22.9-34.5-29-35.1-56.4z"/><path class="a" d="m1485.9 968.9c-0.9-42.1 39.2-112-7.4-144.6-8.5-5.9-19.1-8.3-29.9-7.9-2.8 1.9-5.4 4-7.7 6.2-12.1 12.1-30.2 19.8-48.6 22-13.7 1.7-27.6 0.3-39.4-4.6-17-7-40-4.5-55.9 6.4-4.9 3.3-9.1 7.4-12.3 12.3-30.8 47.8 32.9 97.3 48 136.5 9.9 25.6-11.4 41-10.9 65.5 0.4 23.8 15.8 46.9 35.2 59.7 8.5 5.5 18.5 8.4 28.3 8.9 28.1 1.3 53.6-17.3 30.5-50.4-12.3-17.7-16.1-46.9-7.1-66.5 0.9-1.8 1.9-3.4 3-4.9 9.9-13.5 30.3-16.1 43.1-4.2 15.8 14.8 23.4 43.1 18.7 64.2-6.1 27.3 6.7 39.3 23.7 40.1 5.3-3.7 10.1-8.3 13.8-13.7 13.1-19.2 18.6-46.5 10-68.6-9-22.9-34.5-29.1-35.1-56.4z"/><path class="c" d="m1329.3 888.5c-5.7 16.4-17.2 27.2-25.8 24.3-8.5-3-10.9-18.6-5.3-35 5.6-16.3 17.1-27.2 25.7-24.3 8.6 3 11 18.6 5.4 35z"/><path class="b" d="m1830.1 793.4l-11.6 0.8c2.6-0.2 4.8 1.8 5 4.3l31.8 482.1 11.6-0.7-31.9-482.1c-0.1-2.6-2.4-4.5-4.9-4.4z"/><path class="a" d="m1818.5 794.2l-17.7 1.2c-2.5 0.1-4.5 2.4-4.3 4.9l31.8 482.1 27-1.8-31.8-482.1c-0.2-2.5-2.4-4.5-5-4.3z"/><path class="a" d="m1821.2 794l-11.5 0.8-5.6-84.7 11.5-0.8z"/><path class="b" d="m1816.4 720.9l-11.6 0.7-0.7-11.5 11.5-0.8z"/><path class="b" d="m1821.2 794l-11.5 0.8-0.3-4.8 11.5-0.8z"/><path fill-rule="evenodd" class="a" d="m1893.1 622.2c3.2 48.9-33.8 91.2-82.8 94.5-48.9 3.2-91.3-33.9-94.5-82.8-3.2-49 33.8-91.3 82.8-94.5 49-3.3 91.3 33.8 94.5 82.8zm-18 1.2c-2.6-39.1-36.3-68.6-75.3-66-39 2.5-68.6 36.3-66 75.3 2.6 39 36.3 68.6 75.3 66 39.1-2.6 68.6-36.3 66-75.3z"/><path class="d" d="m1799.8 557.4c-39 2.5-68.6 36.3-66 75.3 2.6 39 36.3 68.6 75.3 66 39.1-2.6 68.6-36.3 66-75.3-2.6-39.1-36.3-68.6-75.3-66z"/><path class="c" d="m1783.3 615.5c-10.7 18.7-26.1 29.9-34.4 25.2-8.3-4.8-6.4-23.8 4.2-42.5 10.7-18.6 26.1-29.9 34.5-25.1 8.3 4.7 6.4 23.7-4.3 42.4z"/><path class="a" d="m1712.6 286.9l-20-2.1-12.6 119.8 20 2.1z"/><path class="b" d="m1700.4 402.7l-20-2.1-0.4 4 20 2.1z"/><path class="b" d="m1712.6 286.9l-20-2.1-0.4 3.9 20 2.1z"/><path class="b" d="m1694.3 421.6l1.7-15.3 8.2 0.9c2.9 0.3 4.9 2.8 4.6 5.7l-1 10.1z"/><path class="a" d="m1668 418.8l1-10.1c0.3-2.9 2.9-4.9 5.7-4.6l21.3 2.2-1.7 15.3z"/><path class="b" d="m1707.8 423l-15.8-1.6c3.5 0.3 6 3.9 5.6 7.8l-78.6 747.1 15.7 1.7 78.7-747.1c0.4-4-2.1-7.5-5.6-7.9z"/><path class="a" d="m1692 421.4l-24-2.6c-3.6-0.3-6.7 2.6-7.2 6.6l-78.6 747 36.8 3.9 78.6-747.1c0.4-3.9-2.1-7.5-5.6-7.8z"/><path class="b" d="m1636.6 257.8l105 11c23.7 2.5 45.1-12.1 52.3-33.8 0.3 3.5 0.4 7 0 10.6-2.8 27.2-27.2 46.9-54.5 44.1l-105-11.1c-13.9-1.4-23.9-13.9-22.5-27.8l2.2-20.8c-1.4 13.9 8.6 26.3 22.5 27.8z"/><path class="a" d="m1644.8 180l105 11.1c23.7 2.4 41.6 21.2 44.1 43.9-7.2 21.7-28.6 36.3-52.3 33.8l-105-11c-13.9-1.5-23.9-13.9-22.5-27.8l2.9-27.5c1.5-13.9 13.9-24 27.8-22.5z"/><path class="b" d="m1613.9 232.4l-15.4-1.7-0.9 8.4c-0.3 2.8 1.8 5.4 4.6 5.7l10.2 1z"/><path class="a" d="m1616.7 205.8l-10.2-1.1c-2.9-0.3-5.5 1.8-5.8 4.7l-2.2 21.3 15.4 1.7z"/><path class="b" d="m1539.8 220.6l-7.4-4.5 2.1-0.8 5.5 3.4 59.1 6.2-0.2 2z"/><path class="a" d="m1534.5 215.3l6.1-2.1 59.1 6.2-0.6 5.5-59.1-6.2z"/></g></svg>